<?xml version="1.0" encoding="UTF-8" standalone="no"?><!DOCTYPE svg PUBLIC "-//W3C//DTD SVG 1.1//EN" "http://www.w3.org/Graphics/SVG/1.1/DTD/svg11.dtd"><svg width="100%" height="100%" viewBox="0 0 1115 1192" version="1.1" xmlns="http://www.w3.org/2000/svg" xmlns:xlink="http://www.w3.org/1999/xlink" xml:space="preserve" xmlns:serif="http://www.serif.com/" style="fill-rule:evenodd;clip-rule:evenodd;stroke-linecap:round;stroke-linejoin:round;stroke-miterlimit:1.5;"><path d="M559.917,10.417l-78.5,126.5c-0,43.325 35.174,78.5 78.5,78.5c43.325,-0 78.5,-35.175 78.5,-78.5l-78.5,-126.5Z" style="fill:#f2f2f2;stroke:#000;stroke-width:20.83px;"/><path d="M53.917,514.782c-11.239,0 -22.283,9.057 -30.709,25.673c-11.094,21.878 -18.426,57.162 -18.426,96.962c0,39.799 7.332,75.083 18.426,96.961c8.426,16.616 19.47,25.673 30.709,25.673c11.238,-0 22.283,-9.057 30.708,-25.673c11.094,-21.878 18.426,-57.162 18.426,-96.961c-0,-39.8 -7.332,-75.084 -18.426,-96.962c-8.425,-16.616 -19.47,-25.673 -30.708,-25.673Z" style="fill:#f2f2f2;stroke:#000;stroke-width:20.83px;"/><path d="M1060.92,514.782c-11.239,0 -22.283,9.057 -30.709,25.673c-11.094,21.878 -18.426,57.162 -18.426,96.962c0,39.799 7.332,75.083 18.426,96.961c8.426,16.616 19.47,25.673 30.709,25.673c11.238,-0 22.283,-9.057 30.708,-25.673c11.094,-21.878 18.426,-57.162 18.426,-96.961c-0,-39.8 -7.332,-75.084 -18.426,-96.962c-8.425,-16.616 -19.47,-25.673 -30.708,-25.673Z" style="fill:#f2f2f2;stroke:#000;stroke-width:20.83px;"/><ellipse cx="559.917" cy="645.917" rx="500.5" ry="535.5" style="fill:#f2f2f2;stroke:#000;stroke-width:20.83px;"/><ellipse cx="432.417" cy="262.283" rx="71" ry="70.866" style="fill:none;stroke:#000;stroke-width:8.33px;"/><ellipse cx="686.417" cy="262.283" rx="71" ry="70.866" style="fill:none;stroke:#000;stroke-width:8.33px;"/><ellipse cx="178.417" cy="629.033" rx="71" ry="70.866" style="fill:none;stroke:#000;stroke-width:8.33px;"/><ellipse cx="942.417" cy="629.033" rx="71" ry="70.866" style="fill:none;stroke:#000;stroke-width:8.33px;"/><ellipse cx="404.417" cy="629.033" rx="71" ry="70.866" style="fill:none;stroke:#000;stroke-width:8.33px;"/><ellipse cx="715.417" cy="629.033" rx="71" ry="70.866" style="fill:none;stroke:#000;stroke-width:8.33px;"/><ellipse cx="433.417" cy="1028.28" rx="71" ry="70.866" style="fill:none;stroke:#000;stroke-width:8.33px;"/><ellipse cx="683.417" cy="1028.28" rx="71" ry="70.866" style="fill:none;stroke:#000;stroke-width:8.33px;"/><text x="392.565px" y="275.185px" style="font-family:'ArialMT', 'Arial', sans-serif;font-size:50px;">Fp1</text><text x="149.791px" y="646.684px" style="font-family:'ArialMT', 'Arial', sans-serif;font-size:50px;">T3</text><text x="372.349px" y="646.916px" style="font-family:'ArialMT', 'Arial', sans-serif;font-size:50px;">C3</text><text x="403.448px" y="1046.19px" style="font-family:'ArialMT', 'Arial', sans-serif;font-size:50px;">O1</text><text x="650.177px" y="1046.19px" style="font-family:'ArialMT', 'Arial', sans-serif;font-size:50px;">O2</text><text x="683.422px" y="646.928px" style="font-family:'ArialMT', 'Arial', sans-serif;font-size:50px;">C4</text><text x="913.864px" y="646.928px" style="font-family:'ArialMT', 'Arial', sans-serif;font-size:50px;">T4</text><text x="646.565px" y="277.185px" style="font-family:'ArialMT', 'Arial', sans-serif;font-size:50px;">Fp2</text></svg>